<svg width="24" height="24" viewBox="0 0 24 24" fill="none" xmlns="http://www.w3.org/2000/svg">
<path d="M12 6C11.2583 6 10.5333 6.21993 9.91661 6.63199C9.29993 7.04404 8.81928 7.62971 8.53545 8.31494C8.25162 9.00016 8.17736 9.75416 8.32206 10.4816C8.46675 11.209 8.8239 11.8772 9.34835 12.4017C9.8728 12.9261 10.541 13.2833 11.2684 13.4279C11.9958 13.5726 12.7498 13.4984 13.4351 13.2145C14.1203 12.9307 14.706 12.4501 15.118 11.8334C15.5301 11.2167 15.75 10.4917 15.75 9.75C15.75 8.75544 15.3549 7.80161 14.6517 7.09835C13.9484 6.39509 12.9946 6 12 6Z" fill="#474747"/>
<path d="M12 1.5C9.9233 1.5 7.89323 2.11581 6.16652 3.26957C4.4398 4.42332 3.09399 6.0632 2.29927 7.98182C1.50455 9.90045 1.29661 12.0116 1.70176 14.0484C2.1069 16.0852 3.10693 17.9562 4.57538 19.4246C6.04383 20.8931 7.91476 21.8931 9.95156 22.2982C11.9884 22.7034 14.0996 22.4955 16.0182 21.7007C17.9368 20.906 19.5767 19.5602 20.7304 17.8335C21.8842 16.1068 22.5 14.0767 22.5 12C22.4969 9.21619 21.3896 6.5473 19.4212 4.57884C17.4527 2.61039 14.7838 1.50314 12 1.5V1.5ZM17.9944 18.6944C17.9795 17.7105 17.5786 16.772 16.8782 16.0809C16.1778 15.3899 15.2339 15.0017 14.25 15H9.75001C8.76608 15.0017 7.8222 15.3899 7.1218 16.0809C6.42139 16.772 6.02054 17.7105 6.00563 18.6944C4.64555 17.4799 3.68643 15.881 3.25526 14.1093C2.82408 12.3377 2.9412 10.4769 3.59111 8.77324C4.24101 7.06963 5.39304 5.6036 6.89466 4.56927C8.39627 3.53495 10.1766 2.98112 12 2.98112C13.8234 2.98112 15.6037 3.53495 17.1054 4.56927C18.607 5.6036 19.759 7.06963 20.4089 8.77324C21.0588 10.4769 21.1759 12.3377 20.7448 14.1093C20.3136 15.881 19.3545 17.4799 17.9944 18.6944V18.6944Z" fill="#474747"/>
</svg>
